<svg width="116" height="105" viewBox="0 0 116 105" fill="none" xmlns="http://www.w3.org/2000/svg">
<path d="M72.8921 49.5075C73.3798 48.5582 73.6333 47.5104 73.6333 46.4301C73.6333 43.6273 71.8551 41.0923 69.2421 40.0641C68.2537 38.0565 66.3026 36.647 64.0801 36.2854C63.3261 35.1065 61.9805 34.3496 60.521 34.3496C59.3893 34.3496 58.3651 34.7912 57.611 35.5018C56.8557 34.7924 55.8315 34.3496 54.701 34.3496C53.2403 34.3496 51.8973 35.1065 51.142 36.2854C48.9195 36.6482 46.9684 38.0565 45.9813 40.0641C43.367 41.0911 41.5888 43.6273 41.5888 46.4301C41.5888 47.5104 41.8435 48.5571 42.3313 49.5075C41.0652 50.7791 40.3559 52.4738 40.3559 54.2901C40.3559 55.979 40.9947 57.6052 42.129 58.8548C41.9754 59.4262 41.8973 60.0139 41.8973 60.6097C41.8973 64.3885 45.0262 67.4625 48.8734 67.4625C49.1128 67.4625 49.3535 67.4439 49.5929 67.4196C50.4314 68.9311 52.0522 69.9731 53.9355 69.9731C55.4001 69.9731 56.7033 69.3391 57.611 68.3515C58.5187 69.3391 59.8233 69.9731 61.2866 69.9731C63.1699 69.9731 64.7907 68.9311 65.6292 67.4196C65.8686 67.4439 66.1093 67.4625 66.3487 67.4625C70.1959 67.4625 73.3248 64.3885 73.3248 60.6097C73.3248 60.0151 73.2467 59.4274 73.0918 58.8559C74.2273 57.6064 74.8662 55.9801 74.8662 54.2913C74.8675 52.4738 74.1582 50.7791 72.8921 49.5075ZM66.3487 65.143C66.3129 65.143 66.277 65.1315 66.2412 65.1303C66.2361 64.4939 65.6676 63.9793 64.9622 63.9793C64.2542 63.9793 63.682 64.4974 63.682 65.1384C63.682 66.5247 62.6066 67.6537 61.2866 67.6537C59.9667 67.6537 58.8913 66.5259 58.8913 65.1384V46.0163C58.8913 45.9896 58.8759 45.9664 58.8746 45.9409C58.8759 45.9131 58.8913 45.8911 58.8913 45.8644C58.8913 44.9614 59.703 44.2277 60.699 44.2277C61.407 44.2277 61.9792 43.7084 61.9792 43.0686C61.9792 42.4287 61.407 41.9095 60.699 41.9095C58.2909 41.9095 56.3308 43.6841 56.3308 45.8644C56.3308 45.8911 56.3462 45.9142 56.3474 45.9397C56.3462 45.9664 56.3308 45.9896 56.3308 46.0163V49.0566C55.7777 48.8271 55.1696 48.6915 54.5218 48.6915C53.8151 48.6915 53.2416 49.2108 53.2416 49.8507C53.2416 50.4905 53.8151 51.0098 54.5218 51.0098C55.5191 51.0098 56.3308 51.7435 56.3308 52.6465V65.1384C56.3308 66.5247 55.2567 67.6537 53.9355 67.6537C52.6142 67.6537 51.5401 66.5247 51.5401 65.1384C51.5401 64.4974 50.9666 63.9793 50.2599 63.9793C49.5557 63.9793 48.9873 64.4939 48.9809 65.1303C48.9451 65.1315 48.9092 65.143 48.8734 65.143C46.4383 65.143 44.4578 63.1088 44.4578 60.6085C44.4578 60.5042 44.4796 60.4034 44.486 60.3002C44.8112 60.3802 45.1261 60.4289 45.4167 60.4289C45.9173 60.4289 46.3628 60.3315 46.729 60.204C47.3896 59.9745 47.7186 59.3034 47.4638 58.7052C47.2103 58.106 46.4652 57.8139 45.8097 58.0399C45.4948 58.1477 45.0826 58.1848 44.4271 57.6968C43.4669 56.8344 42.9151 55.5953 42.9151 54.2913C42.9151 52.8563 43.5898 51.4943 44.7177 50.6412C45.0646 50.4151 45.4052 50.2529 45.7291 50.1671C46.4076 49.9874 46.7968 49.343 46.5984 48.7286C46.3987 48.1131 45.683 47.7607 45.0096 47.9416C44.8329 47.9879 44.6588 48.0668 44.4834 48.1328C44.2696 47.595 44.1467 47.0235 44.1467 46.4324C44.1467 45.2663 44.5986 44.1837 45.336 43.3642C45.4449 44.2103 45.7777 45.0264 46.341 45.8076C46.5868 46.1472 46.9965 46.3327 47.4139 46.3327C47.6546 46.3327 47.8978 46.2713 48.1129 46.1438C48.7044 45.7925 48.8708 45.075 48.4842 44.5395C47.7724 43.5543 47.6674 42.5539 48.1526 41.389L48.1654 41.3577C48.8414 39.626 50.4506 38.5086 52.2635 38.5086C52.9702 38.5086 53.5437 37.9893 53.5437 37.3494C53.5437 37.3089 53.5232 37.2741 53.5181 37.2347C53.8215 36.8881 54.2402 36.6725 54.6985 36.6725C55.5972 36.6725 56.3282 37.4572 56.3282 38.4228C56.3282 39.0626 56.9018 39.5819 57.6085 39.5819C58.3152 39.5819 58.8887 39.0626 58.8887 38.4228C58.8887 37.4572 59.6197 36.6725 60.5185 36.6725C60.9768 36.6725 61.3967 36.8881 61.6989 37.2347C61.6937 37.2741 61.6733 37.3089 61.6733 37.3506C61.6733 37.9904 62.2455 38.5097 62.9535 38.5097C64.7663 38.5097 66.3743 39.6283 67.0516 41.3589L67.0669 41.3971C67.3704 42.1297 67.4408 42.7927 67.2795 43.4221C67.1181 44.0457 67.547 44.6693 68.2358 44.8142C68.3331 44.8351 68.4304 44.8444 68.5277 44.8444C69.1089 44.8444 69.6351 44.4827 69.7734 43.9484C69.8233 43.7525 69.8476 43.5531 69.872 43.3549C70.6145 44.1756 71.069 45.2628 71.069 46.4335C71.069 47.027 70.9461 47.5973 70.7323 48.134C70.5569 48.0679 70.3828 47.9902 70.2074 47.9427C69.5301 47.7631 68.817 48.1154 68.6186 48.7298C68.4202 49.3441 68.8093 49.9874 69.4879 50.1682C69.8143 50.254 70.1536 50.4163 70.5006 50.6435C71.6284 51.4978 72.3031 52.8586 72.3031 54.2936C72.3031 55.5988 71.7501 56.8367 70.7912 57.6991C70.1344 58.1883 69.7222 58.1523 69.4085 58.0422C68.7453 57.8162 68.0079 58.1118 67.7531 58.7076C67.4997 59.3057 67.83 59.9768 68.488 60.2063C68.8554 60.3338 69.301 60.4312 69.8015 60.4312C70.0922 60.4312 70.4071 60.3825 70.7323 60.3025C70.7387 60.4057 70.7604 60.5077 70.7604 60.6109C70.7643 63.1088 68.785 65.143 66.3487 65.143Z" fill="#A53DFF"/>
<path d="M109.754 47.2102C107.182 47.2102 105.034 48.8318 104.454 51.0017H83.9662V45.3591H98.374C99.082 45.3591 99.6543 44.8398 99.6543 44.1999C99.6543 43.5601 99.082 43.0408 98.374 43.0408H83.9662V37.3993H93.5783C94.2862 37.3993 94.8585 36.88 94.8585 36.2402C94.8585 35.6004 94.2862 35.0811 93.5783 35.0811H83.9662V33.8744C83.9662 30.8004 81.2034 28.2978 77.8069 28.2978H76.4755V19.5951C76.4755 18.9553 75.9032 18.436 75.1952 18.436C74.4872 18.436 73.915 18.9553 73.915 19.5951V28.2978H67.6827V15.2542C67.6827 14.6143 67.1105 14.095 66.4025 14.095C65.6945 14.095 65.1222 14.6143 65.1222 15.2542V28.2978H58.8913V9.74828C61.2866 9.2232 63.079 7.27818 63.079 4.94948C63.079 2.22089 60.6247 0 57.611 0C54.5961 0 52.1431 2.22089 52.1431 4.95064C52.1431 7.27934 53.9342 9.22436 56.3308 9.74944V28.299H50.0986V15.2542C50.0986 14.6143 49.525 14.095 48.8183 14.095C48.1116 14.095 47.5381 14.6143 47.5381 15.2542V28.2978H41.3071V19.5951C41.3071 18.9553 40.7336 18.436 40.0269 18.436C39.3202 18.436 38.7466 18.9553 38.7466 19.5951V28.2978H37.4139C34.0187 28.2978 31.2546 30.7992 31.2546 33.8744V35.0811H21.6425C20.9359 35.0811 20.3623 35.6004 20.3623 36.2402C20.3623 36.88 20.9359 37.3993 21.6425 37.3993H31.2546V43.0408H16.848C16.1413 43.0408 15.5678 43.5601 15.5678 44.1999C15.5678 44.8398 16.1413 45.3591 16.848 45.3591H31.2546V51.0017H10.7669C10.1869 48.8318 8.03866 47.2102 5.46665 47.2102C2.45295 47.2102 0 49.4311 0 52.1608C0 54.8894 2.45295 57.1115 5.46793 57.1115C8.03994 57.1115 10.1882 55.4899 10.7681 53.32H31.2559V58.9615H16.848C16.1413 58.9615 15.5678 59.4796 15.5678 60.1206C15.5678 60.7616 16.1413 61.2797 16.848 61.2797H31.2546V66.9224H21.6425C20.9359 66.9224 20.3623 67.4405 20.3623 68.0815C20.3623 68.7225 20.9359 69.2406 21.6425 69.2406H31.2546V70.4461C31.2546 73.5201 34.0174 76.0227 37.4139 76.0227H38.7466V84.7254C38.7466 85.3664 39.3202 85.8846 40.0269 85.8846C40.7336 85.8846 41.3071 85.3664 41.3071 84.7254V76.0227H47.5381V89.0675C47.5381 89.7085 48.1116 90.2267 48.8183 90.2267C49.525 90.2267 50.0986 89.7085 50.0986 89.0675V76.0227H56.3308V94.5734C53.9342 95.0985 52.1431 97.0435 52.1431 99.3722C52.1431 102.101 54.5961 104.322 57.611 104.322C60.6247 104.322 63.079 102.101 63.079 99.371C63.079 97.0424 61.2879 95.0973 58.8913 94.5723V76.0227H65.1222V89.0675C65.1222 89.7085 65.6945 90.2267 66.4025 90.2267C67.1105 90.2267 67.6827 89.7085 67.6827 89.0675V76.0227H73.915V84.7254C73.915 85.3664 74.4872 85.8846 75.1952 85.8846C75.9032 85.8846 76.4755 85.3664 76.4755 84.7254V76.0227H77.8069C81.2021 76.0227 83.9662 73.5213 83.9662 70.4461V69.2406H93.5783C94.2862 69.2406 94.8585 68.7225 94.8585 68.0815C94.8585 67.4405 94.2862 66.9224 93.5783 66.9224H83.9662V61.2797H98.374C99.082 61.2797 99.6543 60.7616 99.6543 60.1206C99.6543 59.4796 99.082 58.9615 98.374 58.9615H83.9662V53.32H104.455C105.035 55.4887 107.183 57.1115 109.755 57.1115C112.769 57.1115 115.222 54.8894 115.222 52.1608C115.222 49.4311 112.769 47.2102 109.754 47.2102ZM54.7036 4.95064C54.7036 3.49941 56.0082 2.31826 57.611 2.31826C59.2139 2.31826 60.5185 3.49941 60.5185 4.95064C60.5185 6.40187 59.2139 7.58187 57.611 7.58187C56.0082 7.58187 54.7036 6.40072 54.7036 4.95064ZM5.46793 54.7932C3.86506 54.7932 2.56049 53.6121 2.56049 52.1608C2.56049 50.7096 3.86506 49.5285 5.46793 49.5285C7.07079 49.5285 8.37408 50.7096 8.37408 52.1608C8.37408 53.6121 7.06951 54.7932 5.46793 54.7932ZM60.5185 99.371C60.5185 100.822 59.2139 102.003 57.611 102.003C56.0082 102.003 54.7036 100.822 54.7036 99.371C54.7036 97.9198 56.0082 96.7387 57.611 96.7387C59.2139 96.7387 60.5185 97.921 60.5185 99.371ZM81.4057 70.4461C81.4057 72.2428 79.7913 73.7044 77.8069 73.7044H37.4139C35.4295 73.7044 33.8151 72.2428 33.8151 70.4461V33.8744C33.8151 32.0778 35.4295 30.6161 37.4139 30.6161H77.8069C79.7913 30.6161 81.4057 32.0778 81.4057 33.8744V70.4461ZM109.754 54.7932C108.151 54.7932 106.847 53.6121 106.847 52.1608C106.847 50.7096 108.151 49.5285 109.754 49.5285C111.357 49.5285 112.662 50.7096 112.662 52.1608C112.662 53.6121 111.357 54.7932 109.754 54.7932Z" fill="#A53DFF"/>
</svg>
