<svg width="84" height="71" viewBox="0 0 84 71" fill="none" xmlns="http://www.w3.org/2000/svg">
<path d="M36.3814 36.6403H46.825V39.0041H36.3814V36.6403Z" fill="#A53DFF"/>
<path d="M40.6616 33.0945H43.2724V42.55H40.6616V33.0945Z" fill="#A53DFF"/>
<path d="M40.6616 36.6403H43.2724V39.0041H40.6616V36.6403Z" fill="#A53DFF"/>
<path d="M40.6616 36.6403H43.2724V39.0041H40.6616V36.6403Z" fill="#A53DFF"/>
<path d="M40.6616 31.9125H43.2724V34.2764H40.6616V31.9125Z" fill="#A53DFF"/>
<path d="M40.6616 41.368H43.2724V43.7319H40.6616V41.368Z" fill="#A53DFF"/>
<path d="M9.08464 20.0786L3.21014 13.4301L9.08464 6.78168L11.1231 8.25911L6.55407 13.4301L11.1231 18.6011L9.08464 20.0786Z" fill="#A53DFF"/>
<path d="M25.5794 20.0786L23.541 18.6011L28.1113 13.4301L23.541 8.25911L25.5794 6.78168L31.4527 13.4301L25.5794 20.0786Z" fill="#A53DFF"/>
<path d="M11.7704 18.1725L20.9111 8.7193L22.8756 10.2758L13.735 19.7296L11.7704 18.1725Z" fill="#A53DFF"/>
<path d="M44.8133 49.6417H39.5915V44.9139H42.2024V47.2778H44.8133V49.6417Z" fill="#A53DFF"/>
<path d="M79.6321 0H3.91633C1.75355 0 0 1.58766 0 3.54583V50.8236C0 52.7818 1.75355 54.3694 3.91633 54.3694H31.3306V60.2792C31.3306 62.2373 29.5771 63.825 27.4143 63.825H20.8871V70.9167H62.6613V63.825H56.1341C53.9713 63.825 52.2177 62.2373 52.2177 60.2792V54.3694H79.6321C81.7948 54.3694 83.5484 52.7818 83.5484 50.8236V3.54583C83.5484 1.58766 81.7948 0 79.6321 0ZM60.0504 66.1889V68.5528H23.498V66.1889H60.0504ZM41.7742 61.5107C43.937 61.5107 45.6905 59.9231 45.6905 57.9649V54.3694H49.6069V60.2792C49.612 61.5621 50.0824 62.8081 50.9461 63.825H32.6023C33.466 62.8081 33.9364 61.5621 33.9415 60.2792V54.3694H37.8579V57.9649C37.8579 59.9231 39.6114 61.5107 41.7742 61.5107ZM40.4688 57.9649V54.3694H43.0796V57.9649C43.0796 58.6176 42.4951 59.1469 41.7742 59.1469C41.0533 59.1469 40.4688 58.6176 40.4688 57.9649ZM80.9375 50.8236C80.9375 51.4763 80.353 52.0056 79.6321 52.0056H3.91633C3.1954 52.0056 2.61089 51.4763 2.61089 50.8236V40.1861H28.9811C30.0622 44.9976 34.3176 48.7015 39.6707 49.4893C45.0231 50.2777 50.3558 47.9853 53.0649 43.7319H59.2007C61.3884 47.1756 65.3455 49.39 69.7259 49.622C74.1062 49.854 78.3209 48.0725 80.9375 44.8833V50.8236ZM70.494 47.2778C66.526 47.2864 62.8997 45.2469 61.1493 42.0231L60.7879 41.3681H51.4802L51.1188 42.0231C48.8292 46.2026 43.515 48.2462 38.6037 46.8351C33.6917 45.4235 30.6512 40.9802 31.4428 36.3696C32.2339 31.7596 36.6213 28.3615 41.7742 28.3667H70.494C76.262 28.3667 80.9375 32.5999 80.9375 37.8222C80.9375 43.0446 76.262 47.2778 70.494 47.2778V47.2778ZM80.9375 30.7611C78.4822 27.7705 74.6098 26.0062 70.494 26.0028H41.7742C34.5675 26.0097 28.7274 31.2973 28.7198 37.8222H2.61089V3.54583C2.61089 2.89311 3.1954 2.36389 3.91633 2.36389H79.6321C80.353 2.36389 80.9375 2.89311 80.9375 3.54583V30.7611Z" fill="#A53DFF"/>
<path d="M39.5915 36.6403H44.8133V39.0041H39.5915V36.6403Z" fill="#A53DFF"/>
<path d="M36.3814 7.09167H46.825V9.45556H36.3814V7.09167Z" fill="#A53DFF"/>
<path d="M31.0312 7.09167H51.9183V9.45556H31.0312V7.09167Z" fill="#A53DFF"/>
<path d="M32.1013 11.8195H50.3775V14.1833H32.1013V11.8195Z" fill="#A53DFF"/>
<path d="M52.4321 12.5945H62.8756V14.9584H52.4321V12.5945Z" fill="#A53DFF"/>
<path d="M28.8912 16.5472H55V18.9111H28.8912V16.5472Z" fill="#A53DFF"/>
<path d="M39.5915 16.5472H44.8133V18.9111H39.5915V16.5472Z" fill="#A53DFF"/>
<path d="M35.3113 21.275H48.3658V23.6389H35.3113V21.275Z" fill="#A53DFF"/>
<path d="M28.8912 21.275H53.6946V23.6389H28.8912V21.275Z" fill="#A53DFF"/>
<path d="M31.0312 21.275H51.9183V23.6389H31.0312V21.275Z" fill="#A53DFF"/>
<path d="M31.0312 26.0027H51.9183V28.3666H31.0312V26.0027Z" fill="#A53DFF"/>
<path d="M36.3814 30.7307H46.825V33.0945H36.3814V30.7307Z" fill="#A53DFF"/>
<path d="M39.5915 30.7307H44.8133V33.0945H39.5915V30.7307Z" fill="#A53DFF"/>
</svg>
