<svg width="151" height="135" viewBox="0 0 151 135" fill="none" xmlns="http://www.w3.org/2000/svg">
<path d="M122.829 62.4425C120.632 62.4425 118.755 63.6567 118 65.3702H108.366V57.2581H113.644C114.686 57.2581 115.531 56.5077 115.531 55.5819C115.531 54.6562 114.686 53.9058 113.644 53.9058H108.366V45.7937H113.644C114.686 45.7937 115.531 45.0433 115.531 44.1175C115.531 43.1919 114.686 42.4414 113.644 42.4414H108.366V41.931C108.366 39.7092 106.338 37.9082 103.836 37.9082H103.186V33.1544C103.186 32.2286 102.341 31.4782 101.298 31.4782C100.256 31.4782 99.4106 32.2286 99.4106 33.1544V37.9082H90.2757V29.3718C92.2051 28.7013 93.5726 27.0351 93.5726 25.084C93.5726 22.5414 91.2514 20.4802 88.3881 20.4802C85.5249 20.4802 83.2039 22.5415 83.2039 25.084C83.2039 27.0351 84.5712 28.7014 86.5006 29.3718V37.9082H77.3658V33.1544C77.3658 32.2286 76.5206 31.4782 75.4783 31.4782C74.4357 31.4782 73.5908 32.2286 73.5908 33.1544V37.9082H64.4559V29.3718C66.3853 28.7013 67.7526 27.0351 67.7526 25.084C67.7526 22.5414 65.4315 20.4802 62.5684 20.4802C59.7051 20.4802 57.3841 22.5415 57.3841 25.084C57.3841 27.0351 58.7514 28.7014 60.6809 29.3718V37.9082H51.546V33.1544C51.546 32.2286 50.701 31.4782 49.6585 31.4782C48.616 31.4782 47.771 32.2286 47.771 33.1544V37.9082H47.1208C44.6188 37.9082 42.5908 39.7092 42.5908 41.931V42.4414H37.313C36.2705 42.4414 35.4255 43.1919 35.4255 44.1175C35.4255 45.0433 36.2705 45.7937 37.313 45.7937H42.5908V53.9058H37.313C36.2705 53.9058 35.4255 54.6562 35.4255 55.5819C35.4255 56.5077 36.2705 57.2581 37.313 57.2581H42.5908V65.3702H32.9995C32.2447 63.6567 30.3682 62.4425 28.1712 62.4425C25.3079 62.4425 22.9869 64.5038 22.9869 67.0463C22.9869 69.589 25.308 71.6501 28.1712 71.6501C30.3681 71.6501 32.2447 70.4359 32.9995 68.7225H42.5908V76.8345H37.313C36.2705 76.8345 35.4255 77.5849 35.4255 78.5107C35.4255 79.4365 36.2705 80.1869 37.313 80.1869H42.5908V88.2989H37.313C36.2705 88.2989 35.4255 89.0494 35.4255 89.9751C35.4255 90.9009 36.2705 91.6512 37.313 91.6512H42.5908V92.2958C42.5908 94.5176 44.6188 96.3186 47.1208 96.3186H47.771V100.938C47.771 101.864 48.616 102.615 49.6585 102.615C50.701 102.615 51.546 101.864 51.546 100.938V96.3186H60.6809V104.721C58.7514 105.391 57.3841 107.058 57.3841 109.009C57.3841 111.551 59.7051 113.613 62.5684 113.613C65.4316 113.613 67.7526 111.551 67.7526 109.009C67.7526 107.058 66.3853 105.391 64.4559 104.721V96.3186H73.5908V100.938C73.5908 101.864 74.4357 102.615 75.4783 102.615C76.5208 102.615 77.3658 101.864 77.3658 100.938V96.3186H86.5006V104.721C84.5712 105.391 83.2039 107.058 83.2039 109.009C83.2039 111.551 85.525 113.613 88.3881 113.613C91.2514 113.613 93.5726 111.551 93.5726 109.009C93.5726 107.058 92.2053 105.391 90.2757 104.721V96.3186H99.4106V100.938C99.4106 101.864 100.256 102.615 101.298 102.615C102.341 102.615 103.186 101.864 103.186 100.938V96.3186H103.836C106.338 96.3186 108.366 94.5176 108.366 92.2958V91.6512H113.644C114.686 91.6512 115.531 90.9009 115.531 89.9751C115.531 89.0494 114.686 88.2989 113.644 88.2989H108.366V80.1869H113.644C114.686 80.1869 115.531 79.4365 115.531 78.5107C115.531 77.5849 114.686 76.8345 113.644 76.8345H108.366V68.7225H118C118.755 70.4359 120.632 71.6501 122.829 71.6501C125.692 71.6501 128.013 69.5888 128.013 67.0463C128.013 64.5036 125.692 62.4425 122.829 62.4425ZM72.3101 46.4741H92.5384C93.5807 46.4741 94.4259 47.2245 94.4259 48.1502C94.4259 49.076 93.5807 49.8264 92.5384 49.8264H72.3101C71.2676 49.8264 70.4226 49.076 70.4226 48.1502C70.4226 47.2245 71.2678 46.4741 72.3101 46.4741ZM84.5275 62.7083C83.7903 62.0536 83.7903 60.9924 84.5275 60.3378C85.2647 59.6832 86.4597 59.6832 87.1968 60.3378L93.5676 65.9952C94.3046 66.6498 94.3046 67.711 93.5676 68.3657L87.1968 74.0232C86.4597 74.6777 85.2646 74.6777 84.5275 74.0232C83.7903 73.3685 83.7903 72.3073 84.5275 71.6527L89.5637 67.1804L84.5275 62.7083ZM58.4181 46.4741H64.6538C65.6963 46.4741 66.5413 47.2245 66.5413 48.1502C66.5413 49.076 65.6963 49.8264 64.6538 49.8264H58.4181C57.3756 49.8264 56.5306 49.076 56.5306 48.1502C56.5306 47.2245 57.3758 46.4741 58.4181 46.4741ZM49.2547 42.3145C50.2972 42.3145 51.1422 43.0651 51.1422 43.9907C51.1422 44.9165 50.2972 45.6669 49.2547 45.6669C48.2122 45.6669 47.3672 44.9165 47.3672 43.9907C47.3672 43.0651 48.2122 42.3145 49.2547 42.3145ZM49.2547 88.5599C50.2972 88.5599 51.1422 89.3104 51.1422 90.236C51.1422 91.1618 50.2972 91.9122 49.2547 91.9122C48.2122 91.9122 47.3672 91.1618 47.3672 90.236C47.3672 89.3104 48.2122 88.5599 49.2547 88.5599ZM54.6588 74.5141H50.5084C49.4659 74.5141 48.6209 73.7637 48.6209 72.8379C48.6209 71.9121 49.4659 71.1618 50.5084 71.1618H54.6588C55.7013 71.1618 56.5463 71.9121 56.5463 72.8379C56.5463 73.7637 55.7013 74.5141 54.6588 74.5141ZM64.6538 87.7528H58.4181C57.3756 87.7528 56.5306 87.0024 56.5306 86.0766C56.5306 85.1508 57.3756 84.4005 58.4181 84.4005H64.6538C65.6963 84.4005 66.5413 85.1508 66.5413 86.0766C66.5413 87.0023 65.6963 87.7528 64.6538 87.7528ZM66.4291 71.6527C67.1663 72.3072 67.1663 73.3685 66.4291 74.0232C65.692 74.6777 64.4969 74.6777 63.7599 74.0232L57.3891 68.3657C56.652 67.7111 56.652 66.6498 57.3891 65.9952L63.7599 60.3378C64.4969 59.6832 65.6921 59.6832 66.4291 60.3378C67.1663 60.9923 67.1663 62.0536 66.4291 62.7083L61.3931 67.1804L66.4291 71.6527ZM70.5172 75.1848L76.8545 58.1257C77.1811 57.2466 78.2484 56.7691 79.2383 57.059C80.2283 57.349 80.766 58.2968 80.4395 59.1759L74.1022 76.235C73.7756 77.1141 72.7083 77.5916 71.7184 77.3017C70.7284 77.0118 70.1907 76.0639 70.5172 75.1848ZM92.5385 87.7528H72.3101C71.2676 87.7528 70.4226 87.0024 70.4226 86.0766C70.4226 85.1508 71.2676 84.4005 72.3101 84.4005H92.5384C93.5807 84.4005 94.4259 85.1508 94.4259 86.0766C94.426 87.0023 93.5809 87.7528 92.5385 87.7528ZM94.4103 72.8379C94.4103 71.9121 95.2553 71.1618 96.2978 71.1618H100.448C101.491 71.1618 102.336 71.9121 102.336 72.8379C102.336 73.7637 101.491 74.5141 100.448 74.5141H96.2978C95.2553 74.5141 94.4103 73.7637 94.4103 72.8379ZM101.702 91.9122C100.659 91.9122 99.8145 91.1618 99.8145 90.236C99.8145 89.3104 100.659 88.5599 101.702 88.5599C102.744 88.5599 103.589 89.3104 103.589 90.236C103.589 91.1618 102.744 91.9122 101.702 91.9122ZM101.702 45.6669C100.659 45.6669 99.8145 44.9165 99.8145 43.9907C99.8145 43.0651 100.659 42.3145 101.702 42.3145C102.744 42.3145 103.589 43.0651 103.589 43.9907C103.589 44.9165 102.744 45.6669 101.702 45.6669Z" fill="#A53DFF"/>
</svg>
