<svg width="88" height="81" viewBox="0 0 88 81" fill="none" xmlns="http://www.w3.org/2000/svg">
<path d="M57.8737 42.3848C54.6135 42.3848 51.5511 43.5325 49.2529 45.6161C46.95 47.6998 45.6808 50.471 45.6808 53.4214C45.6808 56.369 46.9483 59.1416 49.2529 61.228C51.5558 63.3117 54.6166 64.4593 57.8737 64.4593C61.1295 64.4593 64.1916 63.3117 66.4945 61.228C68.7974 59.1414 70.0651 56.369 70.0651 53.4214C70.0651 50.4722 68.7976 47.6999 66.4962 45.6176C64.1947 43.5325 61.1324 42.3848 57.8737 42.3848ZM65.0211 59.8925C63.1111 61.6205 60.5742 62.5719 57.8737 62.5719C55.1748 62.5719 52.6348 61.6205 50.7263 59.8925C48.8163 58.1646 47.7653 55.8664 47.7653 53.4214C47.7653 50.9764 48.8161 48.6781 50.7263 46.9516C52.6348 45.2223 55.1748 44.2708 57.8737 44.2708C60.5742 44.2708 63.1111 45.2223 65.0211 46.9516C66.9296 48.6781 67.9804 50.9764 67.9804 53.4214C67.9806 55.8664 66.9296 58.1646 65.0211 59.8925Z" fill="#A53DFF"/>
<path d="M85.9999 49.8045L79.5028 48.952C79.0959 48.9238 78.7451 48.6923 78.5875 48.3493L76.4826 43.7485C76.3251 43.407 76.3905 43.0173 76.6572 42.7377L80.5427 38.01C81.1618 37.3535 81.1212 36.3779 80.4463 35.7682L77.3715 32.9843C77.0176 32.6623 76.55 32.5001 76.0821 32.5001C75.6611 32.5001 75.2386 32.6314 74.897 32.8968L69.6737 36.4162C69.4758 36.5701 69.2248 36.6505 68.9722 36.6505C68.8319 36.6505 68.6915 36.6251 68.559 36.5758L63.4744 34.6671C63.0987 34.5273 62.8413 34.2053 62.8087 33.8397L61.8654 27.9573C61.7922 27.096 61 26.4326 60.0489 26.4326H55.6988C54.7461 26.4326 53.9539 27.096 53.8807 27.9573L52.9358 33.8397C52.9048 34.2053 52.6489 34.5273 52.2716 34.6683L47.1871 36.5756C47.053 36.6249 46.9127 36.6504 46.7725 36.6504C46.5199 36.6504 46.2703 36.5699 46.0708 36.416L40.8506 32.898C40.5091 32.6326 40.0867 32.4999 39.6673 32.4999C39.1979 32.4999 38.7302 32.6637 38.3746 32.9855L35.2998 35.768C34.6262 36.3793 34.5858 37.3533 35.2032 38.0098L39.0887 42.7376C39.3522 43.017 39.4208 43.4066 39.265 43.7484L37.1584 48.3505C37.0056 48.6921 36.65 48.9238 36.2464 48.9519L29.746 49.8059C28.7982 49.8738 28.0653 50.5909 28.0653 51.4534V55.3892C28.0653 56.2533 28.7982 56.9704 29.746 57.0379L36.2464 57.8907C36.6502 57.9204 37.0058 58.1533 37.1584 58.4935L39.265 63.0969C39.4223 63.4358 39.3522 63.8281 39.0887 64.1077L35.2032 68.8355C34.5858 69.489 34.6262 70.466 35.2998 71.0758L38.3746 73.8598C38.7302 74.1816 39.1979 74.3438 39.6657 74.3438C40.0867 74.3438 40.5092 74.2125 40.8508 73.9471L46.071 70.4277C46.2705 70.2738 46.5201 70.1948 46.7727 70.1948C46.913 70.1948 47.0532 70.2186 47.1872 70.2695L52.2715 72.1771C52.6487 72.3183 52.9062 72.6373 52.9372 73.0057L53.8805 78.8883C53.9537 79.7464 54.7459 80.4114 55.6986 80.4114H60.0487C61.0014 80.4114 61.7918 79.7464 61.8668 78.8883L62.8085 73.0057C62.8413 72.6374 63.0985 72.3184 63.4743 72.1771L68.5588 70.2698C68.6929 70.219 68.8331 70.1951 68.9734 70.1951C69.226 70.1951 69.4771 70.2741 69.6751 70.428L74.8968 73.9474C75.2384 74.2128 75.6608 74.3441 76.0819 74.3441C76.5498 74.3441 77.0174 74.1817 77.3713 73.8601L80.4461 71.0762C81.1226 70.4663 81.1617 69.4893 80.5426 68.8358L76.657 64.108C76.3952 63.8285 76.325 63.436 76.4825 63.0972L78.5873 58.4938C78.745 58.1535 79.0957 57.9206 79.5027 57.891L85.9997 57.0382C86.9493 56.9706 87.6822 56.2535 87.6822 55.3923V51.4537C87.6823 50.5909 86.9494 49.8738 85.9999 49.8045ZM85.5976 55.183L79.2534 56.016C78.1011 56.1275 77.1156 56.7925 76.662 57.7722L74.5586 62.3685C74.1079 63.3454 74.2842 64.4494 75.0153 65.271L78.8105 69.8887L76.0601 72.3788L70.9616 68.9427C70.4003 68.5319 69.6971 68.306 68.9736 68.306C68.551 68.306 68.1396 68.3822 67.7621 68.5262L62.6729 70.4348C61.5955 70.8414 60.8612 71.7348 60.7379 72.7796L59.8182 78.5236H55.9295L55.008 72.781C54.8864 71.7362 54.1535 70.8414 53.0699 70.4319L47.9916 68.5289C47.6034 68.3806 47.1933 68.3059 46.7725 68.3059C46.0521 68.3059 45.3504 68.5317 44.7875 68.941L39.6858 72.3784L36.9369 69.8884L40.7306 65.2707C41.4633 64.449 41.6395 63.3436 41.1906 62.3737L39.0887 57.7802C38.6459 56.7976 37.6573 56.1284 36.4972 56.0155L30.1498 55.1825V51.6589L36.4943 50.826C37.6589 50.7159 38.649 50.0439 39.0839 49.0727L41.1873 44.4762C41.6394 43.4993 41.4633 42.394 40.7306 41.5738L36.9354 36.9547L39.6874 34.4645L44.7843 37.9005C45.3471 38.3126 46.0488 38.5372 46.7723 38.5372C47.1902 38.5372 47.5985 38.4637 47.9852 38.3184L53.0682 36.4112C54.1489 36.0074 54.8863 35.1111 55.0063 34.0635L55.9293 28.3207H59.818L60.7377 34.0664C60.8626 35.1137 61.6002 36.009 62.6758 36.4098L67.7604 38.3184C68.1455 38.4623 68.554 38.5372 68.9719 38.5372C69.6969 38.5372 70.4002 38.3114 70.9615 37.9005L76.0599 34.4645L78.8104 36.9547L75.0184 41.5682C74.2824 42.387 74.1046 43.4936 74.5569 44.4691L76.6618 49.0727C77.1108 50.0495 78.0995 50.7157 79.2548 50.826L85.5975 51.6589L85.5976 55.183Z" fill="#A53DFF"/>
<path d="M29.038 40.8996L32.2406 39.8407C32.9439 39.6092 33.3289 38.9273 33.1293 38.2765L32.0771 33.714C31.9928 33.4317 32.0878 33.1352 32.3218 32.9404L35.5011 30.2978C35.6584 30.1665 35.8643 30.0974 36.0718 30.0974C36.1731 30.0974 36.2745 30.113 36.3694 30.1439L41.2607 31.4668C41.4276 31.5232 41.599 31.55 41.7674 31.5486C42.3069 31.5472 42.82 31.2662 43.0601 30.8004L44.496 28.0011C44.8157 27.387 44.5536 26.6572 43.9035 26.3253L39.639 23.7898C39.3615 23.6474 39.1946 23.3777 39.2102 23.0869L39.3943 19.1836C39.4083 18.8942 39.6002 18.6401 39.8871 18.5188L44.4211 16.3081C45.1024 16.0286 45.4284 15.32 45.1725 14.6861L44.0048 11.7852C43.7942 11.2612 43.2453 10.9324 42.6559 10.9339C42.5296 10.9353 42.4018 10.9493 42.2755 10.982L37.236 11.932C37.1611 11.9518 37.0848 11.9617 37.01 11.9617C36.7762 11.9631 36.5484 11.8728 36.3831 11.712L33.4675 8.83474C33.2492 8.62178 33.182 8.31804 33.2958 8.04854L34.7553 3.61853C35.0157 2.98482 34.6977 2.27886 34.0178 1.99224L30.926 0.689326C30.7294 0.607344 30.522 0.567924 30.3178 0.567924C29.8173 0.570594 29.337 0.810728 29.0768 1.22849L26.2749 5.09091C26.1236 5.33088 25.8429 5.47898 25.5389 5.4804H25.5016L21.1887 5.31109C20.8706 5.29696 20.5837 5.12342 20.4529 4.86224L18.013 0.759529C17.7745 0.282401 17.252 -0.00265132 16.7047 1.85911e-05C16.5441 1.85911e-05 16.3805 0.0254612 16.2214 0.077603L13.0188 1.13771C12.3156 1.36937 11.9289 2.04972 12.1317 2.70055L13.1825 7.26452C13.2682 7.54267 13.1732 7.84044 12.9378 8.03534L9.75853 10.6781C9.59808 10.8108 9.3953 10.8801 9.18627 10.8815C9.08653 10.8815 8.98523 10.8645 8.88687 10.8306L3.99728 9.51212C3.83058 9.45416 3.65903 9.42746 3.49059 9.42746C2.95268 9.43013 2.44114 9.70985 2.19968 10.1757L0.763572 12.9764C0.44544 13.5891 0.705809 14.3175 1.35612 14.652L5.62055 17.1889C5.89966 17.3301 6.06497 17.5997 6.04918 17.8864L5.86531 21.7924C5.85282 22.0805 5.65785 22.336 5.37094 22.4574L0.836947 24.6681C0.157143 24.9475 -0.168795 25.6549 0.0868904 26.2887L1.25482 29.1897C1.46679 29.7134 2.01563 30.0451 2.60506 30.0437C2.72978 30.0423 2.85606 30.0253 2.98235 29.993L8.02476 29.0416C8.09814 29.0232 8.1729 29.0133 8.24627 29.0133C8.48166 29.0133 8.71081 29.1009 8.87456 29.2617L11.7919 32.1416C12.0101 32.3533 12.0739 32.6583 11.9634 32.9294L10.5039 37.3564C10.2437 37.9903 10.5632 38.6975 11.2415 38.9857L14.3317 40.2871C14.5296 40.369 14.7371 40.4084 14.9413 40.4084C15.4419 40.4056 15.922 40.1671 16.1808 39.7493L18.9828 35.8883C19.1323 35.6483 19.41 35.4985 19.7108 35.4985H19.7577L24.0689 35.6665C24.3885 35.6778 24.6738 35.8514 24.8065 36.114L27.2466 40.2192C27.4867 40.6935 28.0074 40.9787 28.5563 40.9773C28.7153 40.9757 28.8789 40.9517 29.038 40.8996ZM26.6648 35.2571C26.1894 34.3833 25.2351 33.8199 24.1576 33.7817L19.8621 33.6153C19.809 33.6124 19.7561 33.6096 19.703 33.6096C18.691 33.6153 17.7431 34.1009 17.2159 34.883L14.6965 38.3572L12.6352 37.489L13.9482 33.5122C14.2927 32.5877 14.0571 31.5783 13.3291 30.8667L10.4167 27.9912C9.85983 27.4377 9.06641 27.123 8.23829 27.1271C8.00759 27.1271 7.77671 27.1525 7.55381 27.2034L3.01808 28.0589L2.24148 26.1276L6.32031 24.1399C7.28546 23.7038 7.90767 22.8383 7.9467 21.8714L8.13231 17.9767C8.18365 16.9998 7.64574 16.0906 6.7243 15.5852L2.8918 13.3067L3.84914 11.4404L8.24766 12.629C8.5533 12.7223 8.87126 12.7674 9.19564 12.7674C9.92523 12.7645 10.6224 12.5191 11.1681 12.0672L14.338 9.43296C15.1409 8.77239 15.4716 7.78421 15.2112 6.83545L14.2679 2.73306L16.4008 2.02726L18.5944 5.72006C19.0716 6.59124 20.0227 7.15443 21.1003 7.19526L25.4176 7.36473L25.547 7.36755C26.5668 7.36331 27.5163 6.87488 28.0433 6.09134L30.5631 2.61716L32.6243 3.48519L31.3129 7.45927C30.9638 8.38526 31.1978 9.39323 31.9305 10.1075L34.8476 12.986C35.4041 13.5379 36.1963 13.8513 37.018 13.8471C37.252 13.8457 37.4827 13.8204 37.7103 13.7723L42.2413 12.9155L43.0178 14.848L38.9372 16.8385C37.9847 17.2677 37.3641 18.1232 37.311 19.1029L37.1254 22.9948C37.0738 23.9733 37.6119 24.8823 38.5349 25.3905L42.3659 27.6703L41.4085 29.538L37.0116 28.348C36.7059 28.2547 36.388 28.2082 36.062 28.2096C35.3276 28.2109 34.6259 28.4623 34.0911 28.907L30.9088 31.5511C30.1183 32.2117 29.7924 33.1972 30.0467 34.1401L30.9931 38.2452L28.8584 38.9483L26.6648 35.2571Z" fill="#A53DFF"/>
<path d="M31.7057 24.3123C32.833 22.1156 32.9499 19.6537 32.0332 17.3808C31.1149 15.1067 29.2767 13.2911 26.8567 12.2733C25.505 11.7016 24.0705 11.415 22.5938 11.4206C21.4401 11.4249 20.2987 11.6111 19.201 11.9741C16.6861 12.8041 14.6811 14.4685 13.5537 16.6637C12.4264 18.8562 12.3095 21.3165 13.2247 23.5951C14.1447 25.8708 15.9847 27.6862 18.4045 28.704C19.7547 29.2729 21.1891 29.5608 22.6656 29.5553C23.8211 29.5496 24.9624 29.3633 26.0617 29.0018C28.5703 28.1719 30.5738 26.5061 31.7057 24.3123ZM25.3458 27.2288C24.4712 27.5183 23.5622 27.6637 22.6562 27.6665C21.5055 27.6722 20.3579 27.4462 19.2838 26.9931C17.3644 26.1841 15.9113 24.7469 15.1831 22.9471C14.4597 21.1444 14.5499 19.1963 15.4435 17.4598C16.337 15.7206 17.9257 14.4021 19.9136 13.7472C20.7898 13.4563 21.6989 13.3109 22.6033 13.3081C23.7541 13.3037 24.9 13.5297 25.9743 13.9829C27.8921 14.7918 29.3483 16.229 30.0749 18.0288C30.8 19.8302 30.7077 21.7769 29.816 23.5161C28.9195 25.2539 27.3339 26.5711 25.3458 27.2288Z" fill="#A53DFF"/>
</svg>
