<svg width="77" height="69" viewBox="0 0 77 69" fill="none" xmlns="http://www.w3.org/2000/svg">
<path d="M35.688 49.8235C35.0667 49.8235 34.5634 50.2794 34.5634 50.8417C34.5634 51.404 35.0667 51.8599 35.688 51.8599H41.0862C41.7074 51.8599 42.2108 51.404 42.2108 50.8417C42.2108 50.2794 41.7074 49.8235 41.0862 49.8235H35.688Z" fill="#A53DFF"/>
<path d="M13.4954 34.0129H20.9293C21.3834 35.0829 22.5274 35.8458 23.867 35.8458C25.2067 35.8458 26.3506 35.0829 26.8047 34.0129H28.2905C28.9118 34.0129 29.4151 33.5571 29.4151 32.9947C29.4151 32.4324 28.9118 31.9765 28.2905 31.9765H26.8047C26.3506 30.9065 25.2067 30.1437 23.867 30.1437C22.5274 30.1437 21.3834 30.9065 20.9293 31.9765H13.4954C12.8742 31.9765 12.3708 32.4324 12.3708 32.9947C12.3708 33.5571 12.8742 34.0129 13.4954 34.0129ZM23.867 32.1801C24.3632 32.1801 24.7667 32.5455 24.7667 32.9947C24.7667 33.444 24.3632 33.8093 23.867 33.8093C23.3708 33.8093 22.9673 33.444 22.9673 32.9947C22.9673 32.5455 23.3708 32.1801 23.867 32.1801Z" fill="#A53DFF"/>
<path d="M13.4954 28.1752H14.9314C15.3854 29.2451 16.5294 30.008 17.869 30.008C19.2087 30.008 20.3526 29.2451 20.8067 28.1752H28.2905C28.9118 28.1752 29.4151 27.7193 29.4151 27.1569C29.4151 26.5946 28.9118 26.1387 28.2905 26.1387H20.8067C20.3526 25.0688 19.2087 24.3059 17.869 24.3059C16.5294 24.3059 15.3854 25.0688 14.9314 26.1387H13.4954C12.8742 26.1387 12.3708 26.5946 12.3708 27.1569C12.3708 27.7193 12.8742 28.1752 13.4954 28.1752ZM17.869 26.3424C18.3652 26.3424 18.7687 26.7077 18.7687 27.1569C18.7687 27.6062 18.3652 27.9715 17.869 27.9715C17.3728 27.9715 16.9693 27.6062 16.9693 27.1569C16.9693 26.7077 17.3728 26.3424 17.869 26.3424Z" fill="#A53DFF"/>
<path d="M28.5155 18.8075C29.1366 18.8075 29.6401 18.3516 29.6401 17.7892C29.6401 17.2269 29.1366 16.771 28.5155 16.771C27.8943 16.771 27.3908 17.2269 27.3908 17.7892C27.3908 18.3516 27.8943 18.8075 28.5155 18.8075Z" fill="#A53DFF"/>
<path d="M25.4164 18.8075C26.0375 18.8075 26.5411 18.3516 26.5411 17.7892C26.5411 17.2269 26.0375 16.771 25.4164 16.771C24.7953 16.771 24.2918 17.2269 24.2918 17.7892C24.2918 18.3516 24.7953 18.8075 25.4164 18.8075Z" fill="#A53DFF"/>
<path d="M22.3174 18.8075C22.9385 18.8075 23.4421 18.3516 23.4421 17.7892C23.4421 17.2269 22.9385 16.771 22.3174 16.771C21.6963 16.771 21.1928 17.2269 21.1928 17.7892C21.1928 18.3516 21.6963 18.8075 22.3174 18.8075Z" fill="#A53DFF"/>
<path d="M73.4003 6.24236H72.9791L73.2933 5.95793C74.2342 5.10601 74.2342 3.71973 73.2933 2.86781L70.8314 0.638837C69.8905 -0.212946 68.3595 -0.212946 67.4184 0.638837L61.2298 6.24222H3.37387C1.51359 6.24222 0 7.61248 0 9.29691V51.5825C0 53.6412 1.84978 55.316 4.12361 55.316H30.7614V62.5189H25.3415C23.8946 62.5189 22.7174 63.5848 22.7174 64.8948V65.9122C22.7174 67.2222 23.8946 68.2881 25.3415 68.2881H51.4327C52.8796 68.2881 54.0568 67.2222 54.0568 65.9122V64.8948C54.0568 63.5848 52.8796 62.5189 51.4327 62.5189H46.0128V55.316H58.0305C58.6517 55.316 59.1551 54.8601 59.1551 54.2977C59.1551 53.7354 58.6517 53.2795 58.0305 53.2795H4.12361C3.09001 53.2795 2.24924 52.5183 2.24924 51.5825V48.5685H74.5249V51.5825C74.5249 52.5183 73.6842 53.2795 72.6506 53.2795H63.2787C62.6575 53.2795 62.1541 53.7354 62.1541 54.2977C62.1541 54.8601 62.6575 55.316 63.2787 55.316H72.6506C74.9244 55.316 76.7742 53.6412 76.7742 51.5825V9.29704C76.7742 7.61276 75.2606 6.24236 73.4003 6.24236V6.24236ZM51.4327 64.5555C51.6395 64.5555 51.8076 64.7078 51.8076 64.8949V65.9123C51.8076 66.0994 51.6395 66.2517 51.4327 66.2517H25.3415C25.1347 66.2517 24.9666 66.0994 24.9666 65.9123V64.8949C24.9666 64.7078 25.1347 64.5555 25.3415 64.5555H51.4327ZM33.0107 55.3162H43.7637V62.5192H33.0107V55.3162ZM69.0089 2.07902C69.0731 2.02105 69.1771 2.02118 69.241 2.07902L71.7027 4.30786C71.7668 4.36583 71.7668 4.46018 71.7027 4.51802L69.3538 6.64476L66.6599 4.20576L69.0089 2.07902ZM65.0694 5.64581L67.7631 8.08481L66.9787 8.79499L64.285 6.35599L65.0694 5.64581ZM62.6945 7.79604L65.3884 10.235L52.0802 22.2842L49.3863 19.8452L62.6945 7.79604ZM61.0295 17.1052C62.5591 17.1052 63.8036 18.2319 63.8036 19.6169C63.8036 21.0018 62.5591 22.1285 61.0295 22.1285C59.4998 22.1285 58.2554 21.0018 58.2554 19.6169C58.2554 19.6007 58.2578 19.5851 58.2581 19.5689L60.977 17.1077C60.9945 17.1074 61.0118 17.1052 61.0295 17.1052ZM50.1273 23.3961L46.7988 24.627L48.1583 21.6134L50.1273 23.3961ZM74.5249 46.5323H2.24924V9.29704C2.24924 8.73566 2.75367 8.27881 3.37387 8.27881H58.9807L57.2659 9.83141H19.0436C18.4224 9.83141 17.919 10.2873 17.919 10.8496C17.919 11.412 18.4224 11.8679 19.0436 11.8679H55.0168L47.0843 19.0503C46.8601 19.2551 46.6849 19.494 46.5641 19.7615L44.052 25.3299C43.8216 25.8414 43.9514 26.4242 44.3828 26.8147C44.6724 27.0768 45.0575 27.2158 45.4502 27.2158C45.6427 27.2158 45.8369 27.1824 46.0227 27.1139L52.1729 24.8396C52.4599 24.7334 52.7166 24.5797 52.9385 24.3849L56.3598 21.2877C57.0968 22.971 58.9111 24.1651 61.0296 24.1651C63.7995 24.1651 66.0529 22.1248 66.0529 19.617C66.0529 17.6992 64.7344 16.0566 62.8755 15.3892L66.7651 11.868H70.5609V42.9434H69.9648L65.8892 36.552C65.5788 36.0649 64.8905 35.8981 64.353 36.1794C63.8151 36.4605 63.6308 37.0833 63.9414 37.5703L67.3677 42.9434H51.6575L49.9725 40.301L57.8276 27.9828L61.3171 33.4551C61.6278 33.9421 62.3156 34.1091 62.8533 33.8278C63.3912 33.5466 63.5755 32.9239 63.2649 32.4369L59.5421 26.5989C59.1842 26.0377 58.5433 25.7026 57.8275 25.7026C57.1116 25.7026 56.4706 26.0377 56.1126 26.5989L48.6736 38.2647L39.1287 23.2966C38.7708 22.7354 38.1299 22.4003 37.4139 22.4003C36.6982 22.4003 36.0572 22.7354 35.6992 23.2966L33.1635 27.2733V16.3588C33.1635 15.0488 31.9862 13.9829 30.5393 13.9829H11.2462C9.79936 13.9829 8.6221 15.0488 8.6221 16.3588V38.6241C8.6221 39.5599 9.46287 40.3211 10.4965 40.3211H24.8435L23.1713 42.9435H6.21346V11.8679H13.7954C14.4166 11.8679 14.92 11.412 14.92 10.8496C14.92 10.2873 14.4166 9.83141 13.7954 9.83141H5.83859C4.80498 9.83141 3.96422 10.5926 3.96422 11.5285V43.2827C3.96422 44.2185 4.80498 44.9797 5.83859 44.9797H70.9358C71.9694 44.9797 72.8101 44.2185 72.8101 43.2827V11.5285C72.8101 10.5926 71.9694 9.83141 70.9358 9.83141H69.0146L70.7297 8.27881H73.4003C74.0205 8.27881 74.5249 8.73566 74.5249 9.29704V46.5323ZM30.9147 21.9979V38.2844H10.8713V21.9979H30.9147ZM10.8713 19.9614V16.3585C10.8713 16.1714 11.0394 16.0191 11.2462 16.0191H30.5398C30.7466 16.0191 30.9147 16.1714 30.9147 16.3585V19.9614H10.8713ZM27.4408 40.3208H31.2895C32.3231 40.3208 33.1639 39.5596 33.1639 38.6238V36.4669C33.4452 36.5891 33.7585 36.6552 34.0865 36.6552C34.8543 36.6552 35.5417 36.2957 35.9254 35.6939L37.8393 32.6926C37.8972 32.6019 37.9857 32.5827 38.0494 32.5827C38.1134 32.5827 38.2019 32.6019 38.2596 32.6926L39.4396 34.5429C39.8235 35.145 40.511 35.5044 41.2789 35.5044C42.0466 35.5044 42.7341 35.145 43.1179 34.543L43.4109 34.0836L49.0604 42.9431H25.7685L27.4408 40.3208ZM33.1639 33.0584V31.3459L37.4145 24.6803L42.1121 32.0471L41.2787 33.354L40.2075 31.6742C39.757 30.9678 38.9503 30.5461 38.0493 30.5461C37.1484 30.5461 36.3416 30.9678 35.8912 31.6742L34.0861 34.5049L33.1639 33.0584Z" fill="#A53DFF"/>
</svg>
