<svg width="75" height="55" viewBox="0 0 75 55" fill="none" xmlns="http://www.w3.org/2000/svg">
<path d="M70.1764 0H4.19859C3.08543 0.00111398 2.01822 0.401974 1.2311 1.11463C0.443976 1.82729 0.00123038 2.79354 0 3.80139V41.8153C0.00123038 42.8231 0.443976 43.7894 1.2311 44.502C2.01822 45.2147 3.08543 45.6156 4.19859 45.6167H28.2175L26.778 48.875H20.3931C20.075 48.875 19.7699 48.9894 19.5449 49.1931C19.3199 49.3968 19.1935 49.6731 19.1935 49.9611V52.1333H11.996C11.6778 52.1333 11.3727 52.2478 11.1477 52.4515C10.9228 52.6551 10.7964 52.9314 10.7964 53.2194C10.7964 53.5075 10.9228 53.7838 11.1477 53.9874C11.3727 54.1911 11.6778 54.3056 11.996 54.3056H62.379C62.6972 54.3056 63.0023 54.1911 63.2273 53.9874C63.4522 53.7838 63.5786 53.5075 63.5786 53.2194C63.5786 52.9314 63.4522 52.6551 63.2273 52.4515C63.0023 52.2478 62.6972 52.1333 62.379 52.1333H55.1815V49.9611C55.1815 49.6731 55.0551 49.3968 54.8301 49.1931C54.6051 48.9894 54.3 48.875 53.9819 48.875H47.597L46.1575 45.6167H70.1764C71.2896 45.6156 72.3568 45.2147 73.1439 44.502C73.931 43.7894 74.3738 42.8231 74.375 41.8153V3.80139C74.3738 2.79354 73.931 1.82729 73.1439 1.11463C72.3568 0.401974 71.2896 0.00111398 70.1764 0V0ZM52.7823 51.0472V52.1333H21.5927V51.0472H52.7823ZM29.3631 48.875L30.8026 45.6167H43.5724L45.0119 48.875H29.3631ZM71.9758 41.8153C71.9754 42.2473 71.7857 42.6614 71.4483 42.9669C71.111 43.2723 70.6535 43.4441 70.1764 43.4444H4.19859C3.72148 43.4441 3.26403 43.2723 2.92666 42.9669C2.5893 42.6614 2.39959 42.2473 2.39919 41.8153V39.1H71.9758V41.8153ZM71.9758 36.9278H2.39919V3.80139C2.39959 3.36942 2.5893 2.95524 2.92666 2.64979C3.26403 2.34434 3.72148 2.17258 4.19859 2.17222H70.1764C70.6535 2.17258 71.111 2.34434 71.4483 2.64979C71.7857 2.95524 71.9754 3.36942 71.9758 3.80139V36.9278Z" fill="#A53DFF"/>
<path d="M31.7308 28.0607C31.8625 28.139 32.01 28.193 32.1647 28.2197C32.3195 28.2463 32.4786 28.2451 32.6328 28.2161C32.7871 28.1871 32.9335 28.1309 33.0638 28.0507C33.194 27.9704 33.3055 27.8677 33.3919 27.7485L42.8388 14.7152C43.0134 14.4743 43.0751 14.1806 43.0105 13.8985C42.9459 13.6165 42.7602 13.3692 42.4942 13.2112C42.2282 13.0531 41.9038 12.9972 41.5923 13.0557C41.2807 13.1142 41.0076 13.2823 40.8331 13.5231L31.3862 26.5565C31.2997 26.6757 31.24 26.8092 31.2105 26.9494C31.181 27.0895 31.1823 27.2336 31.2143 27.3732C31.2463 27.5129 31.3084 27.6455 31.397 27.7635C31.4856 27.8815 31.5991 27.9825 31.7308 28.0607Z" fill="#A53DFF"/>
<path d="M44.8167 27.9872C45.0611 28.1716 45.3765 28.2605 45.6933 28.2344C46.0101 28.2083 46.3025 28.0693 46.5062 27.848L52.5042 21.3314C52.6838 21.1362 52.7822 20.8902 52.7822 20.6361C52.7822 20.3821 52.6838 20.1361 52.5042 19.9409L46.5062 13.4242C46.4057 13.3137 46.282 13.2223 46.1424 13.1552C46.0027 13.0882 45.8497 13.0467 45.6923 13.0334C45.5349 13.02 45.3761 13.0349 45.2251 13.0773C45.0741 13.1197 44.9338 13.1887 44.8124 13.2803C44.6909 13.372 44.5906 13.4844 44.5174 13.6113C44.4441 13.7381 44.3992 13.8768 44.3853 14.0194C44.3714 14.162 44.3888 14.3057 44.4365 14.4421C44.4841 14.5786 44.5611 14.7052 44.663 14.8147L50.021 20.6361L44.663 26.4575C44.4594 26.6788 44.3612 26.9643 44.39 27.2512C44.4188 27.5381 44.5723 27.8028 44.8167 27.9872V27.9872Z" fill="#A53DFF"/>
<path d="M27.8687 27.848C27.9693 27.9585 28.0929 28.0499 28.2326 28.117C28.3723 28.1841 28.5252 28.2255 28.6826 28.2389C28.84 28.2522 28.9988 28.2373 29.1498 28.1949C29.3008 28.1525 29.4411 28.0835 29.5626 27.9919C29.684 27.9003 29.7843 27.7878 29.8576 27.661C29.9309 27.5341 29.9758 27.3954 29.9896 27.2528C30.0035 27.1102 29.9861 26.9666 29.9385 26.8301C29.8908 26.6936 29.8138 26.567 29.7119 26.4575L24.3539 20.6361L29.7119 14.8147C29.8138 14.7052 29.8908 14.5786 29.9385 14.4421C29.9861 14.3057 30.0035 14.162 29.9896 14.0194C29.9758 13.8768 29.9309 13.7381 29.8576 13.6113C29.7843 13.4844 29.684 13.372 29.5626 13.2803C29.4411 13.1887 29.3008 13.1197 29.1498 13.0773C28.9988 13.0349 28.84 13.02 28.6826 13.0334C28.5252 13.0467 28.3723 13.0882 28.2326 13.1552C28.0929 13.2223 27.9693 13.3137 27.8687 13.4242L21.8708 19.9409C21.6911 20.1361 21.5928 20.3821 21.5928 20.6361C21.5928 20.8902 21.6911 21.1362 21.8708 21.3314L27.8687 27.848Z" fill="#A53DFF"/>
</svg>
